<?xml version="1.0" encoding="utf-8"?>
<!-- Generator: Adobe Illustrator 19.0.0, SVG Export Plug-In . SVG Version: 6.00 Build 0)  -->
<svg version="1.1" xmlns="http://www.w3.org/2000/svg" xmlns:xlink="http://www.w3.org/1999/xlink" x="0px" y="0px"
	 viewBox="0 0 971 603" style="enable-background:new 0 0 971 603;" xml:space="preserve">
<style type="text/css">
	.st0{display:none;}
	.st1{display:inline;fill:#1976D2;}
	.st2{fill:#0D47A1;}
	.st3{fill:#1A237E;}
	.st4{fill-rule:evenodd;clip-rule:evenodd;fill:#1A237E;}
	.st5{fill-rule:evenodd;clip-rule:evenodd;fill:#0D47A1;}
</style>
<g id="Layer_6" class="st0">
	<rect class="st1" width="971" height="603"/>
</g>
<g id="Gear_1_">
	<path class="st2" d="M273,306.5c0-1.5,4.9-29,5-29.7c0.3-1.7,0.5-2,2.1-1.8c2,0.2,28.7,2.8,30.2,2.9c1.3,0.1,1.8-0.4,2-1.7
		c0.1-0.5,5.7-22.4,5.8-22.7c0.8-1.8,0.6-2.3-1.2-3.1c-1.3-0.6-25.7-12.6-26.6-12.8c-1.4-0.4-2.9-2.4-2.9-3.9c0-0.5,0.1-1,0.3-1.4
		c0.2-0.3,7.4-23.1,8.1-25.1c0.2-0.7,0.8-1.3,1.5-1c0.9,0.3,31.9,9.3,32.4,9.5c1.6,0.5,2.3,0.1,2.9-1.5c0.2-0.5,9.4-19.2,10-20.1
		c0.9-1.4,0.8-1.9-0.4-3c-1.3-1.2-25.5-20.4-24.8-22.2c0.3-0.9,13.1-21.1,14.6-23.3c1-1.4,1.4-1.4,3-0.9c0.9,0.3,25,14.3,26.2,15.3
		c0.9,0.8,1.8,0.6,2.6-0.4c1.8-2.3,12.6-16.2,14.4-18.2c1.1-1.2,1.1-2.2,0-3.4c-0.7-0.8-18.1-21.6-19.5-23.2c-1-1.2-1-2.5,0.1-3.7
		c3-2.9,15.4-16.1,18.8-19.7c0.9-1,2.1-0.9,3.1,0c2.6,2.4,20.8,19,22.2,20.4c1.3,1.3,2.2,1.3,3.6,0c0.7-0.7,14.9-15.2,15.9-16.5
		c1.1-1.4,1.1-2.6,0.1-4.2c-0.5-0.8-11.1-21.2-12.5-23.4c-0.2-0.4-0.4-0.8-0.5-1.2c-0.5-1.4-0.3-2,0.8-2.9
		c2.1-1.7,21.8-15.1,22.5-15.4c1.5-0.5,2-0.3,3,0.9c2.2,2.6,15.9,22.3,18,25c1.1,1.4,1.7,1.5,3,0.4c1.6-1.3,18.8-10.3,20.4-10.7
		c1.3-0.3,1.6-1.4,0.7-2.5c-0.5-0.6-8.8-27.6-9.3-29c-0.6-1.7-0.2-3.1,1.4-3.8c2.6-1.2,22.9-9.5,25-10c2-0.5,2.7-0.3,3.6,1.7
		c0.1,0.2,11.8,26.5,12.3,27.9c0.6,1.5,1.4,1.9,2.8,1.2c0.4-0.2,19.6-5.3,21.5-6c1.6-0.6,2-0.8,1.8-2.6c-0.1-1.8-2.5-29.1-2.7-31.2
		c-0.1-1.6,0.2-2,1.7-2.2c0.8-0.1,24.1-4.2,26.3-4.4c0.4,0,0.8-0.1,1.1,0c1.3,0.1,1.6,0.4,1.7,1.7c0.2,1.5,6.3,28.8,6.8,30.9
		c0.3,1,0.7,1.4,1.6,1.5c0.3,0,0.6,0,0.9,0c2.6-0.2,22.6-1.3,23-1.4c0.5-0.1,0.9-0.4,1-0.9c0.1-1.3,3.9-31,4-32.5
		c0.1-1.4,0.4-1.6,1.7-1.7c0.3,0,0.7,0,1,0c3,0.1,24,1.3,26.6,1.4c1.3,0.1,1.6,0.4,1.6,1.8c0,0.2,0,0.3,0,0.5
		c0.1,10.2,0.2,20.4,0.3,30.7c0,0.5,0,1,0.2,1.4c0.2,0.5,0.5,0.9,1,1.1c0.9,0.3,21.9,3.8,23.2,3.9c1.8,0.1,2.3-0.3,2.8-2.1
		c0.2-1,9.4-28.2,9.6-29.2c0.2-1.1,0.6-1.4,1.7-1.3c1.1,0.1,25.7,7.1,26.8,7.3c1.1,0.2,1.4,0.6,1.4,1.8c0,0.3-4.6,29.3-5.5,31.7
		c-0.4,1-0.1,1.6,0.8,2.2c0.8,0.6,19.7,8.2,21.9,8.8c1.3,0.4,1.6,0.4,2.4-0.7c0.6-0.9,15.4-26.7,15.7-27.6c0.2-0.7,0.8-1,1.5-1
		c0.8,0.1,26.7,14,26.7,14.8c0,0.9-12.4,30.6-12.8,31.3c-0.4,0.6-12.8,6.1-14,6.7c-1.1,0.5-2.2,0.9-3.2,1.4c-1.7,0.9-3.3,2.1-5,2.9
		c-0.5,0.3-0.8,0.8-1.4,1c-1.2,0.5-2.3,1.1-3.4,1.9c-2.3,1.5-4.9,2.6-6.9,4.7c-0.1,0.1-4.9,3.3-5.3,3.7c-1.3,1.2-2.8,2-4,3.3
		c-0.6,0.7-1.6,1.1-2.3,1.7c-1,0.8-1.7,1.8-2.7,2.5c-0.6,0.4-1.3,0.9-1.9,1.4c-0.6,0.5-1.8,2-1.9,2.2c-0.8,0.9-1.9,1.5-2.8,2.4
		c-0.7,0.8-1.3,1.7-2.2,2.3c-1.1,0.8-8.7,9.5-9.7,10.5c-0.9,0.9-1.9,1.8-2.5,3c-0.8,1.7-1.9,3.1-3.2,4.5c-0.7,0.7-1.9,2.9-2.1,3.1
		c-0.6,0.6-1,1.3-1.4,2c-0.3,0.4-0.6,0.8-0.9,1.3c-0.9,1.3-2,2.4-2.8,3.8c-0.4,0.8-3.1,5.2-3.7,6.5c-1,1.9-2.1,3.8-3.3,5.5
		c-0.4,0.6-1.7,4.2-2.5,5.1c-0.5,0.6-2.4,4.7-2.7,5.8c0,0.2-2.1,3.9-2.2,4.2c-0.7,2-2,3.7-2.7,5.7c-0.1,0.3-3.3,6.8-3.9,8.1
		c-0.6,1.5-1.6,2.8-2.1,4.3c0,0.1-2.3,5.8-2.7,6.2c-0.4,0.5-0.6,1.1-0.8,1.7c-0.2,0.6-1.2,2.2-1.3,2.5c-0.3,0.8-1.4,2.4-1.4,2.5
		c-0.7,1.4-3.9,6.8-5,7.8c-0.2,0.2-1.9,4.4-2.5,5.1c-0.4,0.5-3,5.6-3.3,6.2c-0.8,1.6-1.5,3.3-2.8,4.5c-0.2,0.2-0.8,2-1.3,2.5
		c-0.5,0.5-2.9,5.2-3.1,5.6c-1.2,2-2.4,4-3.4,6.1c-0.7,1.4-1.7,2.5-2.3,3.8c-0.7,1.4-1.7,2.7-2.8,3.6c-1.1,0.9-1.8,2.1-2.6,3.2
		c-0.2,0.4-0.6,0.6-0.8,0.9c-0.6,0.8-3.5,3-4.2,3.8c-1.6,1.7-3.1,3.4-4.7,5.1c-1,1.1-2,2.4-3,3.5c-1.2,1.2-12,8.8-13.7,9.8
		c-0.1,0-0.1,0.1-0.2,0.2c-0.9,0.8-6.4,3.3-8.2,4.2c-1.9,1-14.5,5.4-15.1,5.7c-1.1,0.6-7.5,2.7-9.4,3.5c-0.3,0.1-12.7,3.8-13.7,4
		c-1.9,0.3-3.7,0.7-5.6,1.2c-1.1,0.3-15.2,2.7-15.8,2.9c-1.7,0.6-9.8,1.7-12.1,2.4c-1.6,0.5-7.8,1.6-9.1,1.8
		c-1.2,0.1-4.1,0.3-4.9,0.7c-0.4,0.2-3.8,0.2-5,0.8c-0.4,0.2-9.3,1.5-9.7,1.5c-2-0.1-8.7,1.3-9.2,1.3c-1.3,0-16.7,1.8-19.4,2.8
		c-0.6,0.2-11.4,1.6-12.4,1.8c-0.4,0.1-0.7,0.1-1.1,0.1c-0.8-0.1-5.8,0.8-6.2,0.8c-1.4,0.3-9.8,1.6-11.1,1.5c-1,0-8.7,1.2-10.1,1.5
		c-0.5,0.1-9.3,1.2-10.5,1.3c-1.8,0.2-12.5,1.4-14.8,1.4c-1.2,0-18.1,2.7-19.4,2.4c-0.3-0.1-20.7,2-21.3,2.2
		c-1.3,0.3-12.6,1.1-13.8,1.3c-0.9,0.2-20.3,1.9-21.4,1.9c-0.6,0-0.9-0.2-0.8-0.9c0-0.4,0.2-3.7,0.2-5c0-1.3-0.4-1.8-1.6-2.1
		C304.4,314.2,273.7,307,273,306.5z"/>
</g>
<g id="Brooklyn_Tech_Robotics">
	<g>
		<path class="st3" d="M116,154.4H96.5v-19.5h3V92.5h-3V73.1h21.1c4.1,0,7.3,0.6,9.6,1.7c2.2,1.2,4,3.5,5.3,7
			c1.3,3.5,1.9,7.7,1.9,12.4c0,4.6-0.6,8.3-1.8,11c-1.2,2.8-2.7,4.8-4.5,5.8c2.4,1.7,4.3,4.4,5.6,7.9c1.3,3.7,2,7.8,2,12.3
			c0,5.5-0.7,10.1-2.2,13.9c-1.5,3.8-3.5,6.3-6.1,7.4C124.7,153.8,120.9,154.4,116,154.4z M112.8,90.9v14.8h2.9c2,0,3.3-0.7,3.9-2
			c0.6-1.4,0.9-3.2,0.9-5.4c0-1.9-0.3-3.6-0.8-5.1c-0.5-1.5-2-2.3-4.5-2.3H112.8z M112.8,120.5v16h3c1.9,0,3.3-0.6,4.1-1.8
			c0.8-1.2,1.2-3.2,1.2-6.2c0-2.8-0.4-4.8-1.1-6.1c-0.7-1.3-2.2-1.9-4.3-1.9H112.8z"/>
		<path class="st3" d="M158.6,154.4h-18.7v-19.5h2.8V92.5h-2.8V73.1h18.7c1.7,0,3.2,0.1,4.7,0.2c1.4,0.1,2.7,0.3,3.7,0.6
			c1,0.3,2,0.6,2.8,1c2.4,1.2,4.4,3.8,5.9,7.9c1.5,4.1,2.3,9,2.3,14.6c0,4.2-0.5,8-1.4,11.5c-0.9,3.4-2.1,5.9-3.6,7.5l4.8,18.6h2.5
			v19.5h-12.4l-7.5-33.2H156v13.7h2.6V154.4z M156,90.9v15.5h1.5c1.9,0,3.3-0.1,4-0.4c0.7-0.3,1.4-1.1,1.9-2.3
			c0.5-1.2,0.8-2.9,0.8-5c0-2.1-0.3-3.8-0.8-5c-0.5-1.3-1.2-2.1-2-2.3c-0.8-0.3-2.1-0.4-4.2-0.4H156z"/>
		<path class="st3" d="M182.7,113.5c0-6.8,0.7-13.3,2.1-19.7c1.4-6.3,3.5-11.6,6.5-16c1-1.5,2.1-2.7,3.2-3.6
			c1.1-0.9,2.3-1.6,3.6-2.1c1.3-0.5,2.6-0.7,4.1-0.7c6.2,0,11,4.3,14.4,12.8c1.7,4.2,3,8.8,3.8,13.7c0.9,4.9,1.3,10.1,1.3,15.6
			c0,11.3-1.8,21.2-5.3,29.6c-3.5,8.4-8.2,12.6-14.2,12.6c-5.8,0-10.4-3.9-14-11.8C184.5,136,182.7,125.9,182.7,113.5z M197.7,113.5
			c0,9,0.4,15.1,1.1,18.3c0.7,3.2,1.8,4.8,3.3,4.8c1.5,0,2.6-1.5,3.4-4.6c0.7-3.1,1.1-9.3,1.1-18.5c0-8.9-0.4-15-1.1-18.2
			c-0.7-3.2-1.8-4.8-3.4-4.8c-1.5,0-2.6,1.5-3.3,4.6C198.1,98.2,197.7,104.3,197.7,113.5z"/>
		<path class="st3" d="M226.7,113.5c0-6.8,0.7-13.3,2.1-19.7c1.4-6.3,3.5-11.6,6.5-16c1-1.5,2.1-2.7,3.2-3.6
			c1.1-0.9,2.3-1.6,3.6-2.1c1.3-0.5,2.6-0.7,4.1-0.7c6.2,0,11,4.3,14.4,12.8c1.7,4.2,3,8.8,3.8,13.7c0.9,4.9,1.3,10.1,1.3,15.6
			c0,11.3-1.8,21.2-5.3,29.6c-3.5,8.4-8.2,12.6-14.2,12.6c-5.8,0-10.4-3.9-14-11.8C228.5,136,226.7,125.9,226.7,113.5z M241.6,113.5
			c0,9,0.4,15.1,1.1,18.3c0.7,3.2,1.8,4.8,3.3,4.8c1.5,0,2.6-1.5,3.4-4.6c0.7-3.1,1.1-9.3,1.1-18.5c0-8.9-0.4-15-1.1-18.2
			c-0.7-3.2-1.8-4.8-3.4-4.8c-1.5,0-2.6,1.5-3.3,4.6C242,98.2,241.6,104.3,241.6,113.5z"/>
		<path class="st3" d="M289.1,154.4h-18.7v-19.5h2.6V92.5h-2.7V73.1h18.8v19.5h-2.7v42.4h2.7V154.4z M310.5,154.4h-17.8v-19.5h1.7
			l-7.6-23.1l8.8-19.2h-2.8V73.1h17v19.5h-2.7l-7,15.4l8.8,26.9h1.7V154.4z"/>
		<path class="st3" d="M346,154.4h-32.8v-19.5h3.1V92.5h-3.1V73.1h19.7v19.5h-3.3v42.4h8.2v-13h8.2V154.4z"/>
		<path class="st3" d="M371.1,154.4h-18.8v-19.5h2.8V122l-8.7-29.5h-2.4V73.1h18v19.5h-2.1l3.7,16.6l4.4-16.6h-2.1V73.1h13.3v19.5
			H377l-8.7,29.5v12.9h2.7V154.4z"/>
		<path class="st3" d="M395.9,154.4h-14.2v-19.5h3V92.5h-3V73.1H398l12.5,42.5v-23h-2.8V73.1h13.9v19.5h-3v62.9h-11.4l-14.5-49.1
			v28.6h3V154.4z"/>
		<path class="st3" d="M461,154.4h-19.4v-19.5h3V92.5h-4v14.8h-6.5V73.1h34.2v34.2h-6.5V92.5H458v42.4h3V154.4z"/>
		<path class="st3" d="M505.6,154.4h-32.9v-19.5h2.7V92.5h-2.7V73.1h32.9v26h-9v-6.5h-7.8v12.5h6.8v16.5h-6.8v13.3h7.8v-6.5h9V154.4
			z"/>
		<path class="st3" d="M538,118.6l8.9,7.4c-0.8,8.7-2.5,15.8-5.2,21.3c-2.8,5.6-6.6,8.4-11.4,8.4c-6.6,0-11.5-4.1-14.7-12.2
			c-3.2-8.1-4.8-18-4.8-29.7c0-11.8,1.6-21.8,4.7-30c3.1-8.2,7.2-12.3,12.2-12.3c4,0,7.3,2.4,9.9,7.1v-5.4h8.3v29.7h-8.6
			c-0.4-3.7-1.2-6.6-2.3-8.8c-1.1-2.1-2.3-3.2-3.6-3.2c-3.7,0-5.6,7.6-5.6,22.7c0,15.2,1.9,22.8,5.8,22.8
			C535,136.4,537.2,130.4,538,118.6z"/>
		<path class="st3" d="M569.6,154.4h-18.1v-19.5h2.6V92.5h-2.7V73.1h18.2v19.5h-2.2v12.4h8V92.5h-2.2V73.1h18.2v19.5h-2.6v42.4h2.6
			v19.5h-18.2v-19.5h2.2v-13.3h-8v13.3h2.2V154.4z"/>
		<path class="st3" d="M129.2,258.4H98v-19.5h4.7v-42.4H98v-19.5h31.2c2.8,0,5.4,0.1,7.8,0.2c2.4,0.1,4.4,0.3,6.1,0.6
			c1.7,0.3,3.3,0.6,4.7,1c4,1.2,7.3,3.8,9.8,7.9c2.5,4.1,3.8,9,3.8,14.6c0,4.2-0.8,8-2.3,11.5c-1.5,3.4-3.6,5.9-6.1,7.5l7.9,18.6
			h4.1v19.5h-20.7l-12.5-33.2h-7v13.7h4.3V258.4z M124.8,194.9v15.5h2.5c3.2,0,5.4-0.1,6.6-0.4c1.2-0.3,2.3-1.1,3.1-2.3
			c0.9-1.2,1.3-2.9,1.3-5c0-2.1-0.4-3.8-1.3-5c-0.9-1.3-1.9-2.1-3.3-2.3c-1.3-0.3-3.6-0.4-6.9-0.4H124.8z"/>
		<path class="st3" d="M169.3,217.5c0-6.8,1.2-13.3,3.5-19.7c2.3-6.3,5.9-11.6,10.8-16c1.7-1.5,3.5-2.7,5.3-3.6
			c1.8-0.9,3.8-1.6,6-2.1c2.1-0.5,4.4-0.7,6.8-0.7c10.3,0,18.2,4.3,23.9,12.8c2.8,4.2,4.9,8.8,6.3,13.7c1.4,4.9,2.1,10.1,2.1,15.6
			c0,11.3-2.9,21.2-8.7,29.6c-5.8,8.4-13.7,12.6-23.6,12.6c-9.6,0-17.4-3.9-23.3-11.8C172.3,240,169.3,229.9,169.3,217.5z
			 M194.2,217.5c0,9,0.6,15.1,1.9,18.3c1.2,3.2,3,4.8,5.6,4.8c2.5,0,4.4-1.5,5.6-4.6c1.2-3.1,1.9-9.3,1.9-18.5
			c0-8.9-0.6-15-1.8-18.2c-1.2-3.2-3.1-4.8-5.6-4.8c-2.5,0-4.3,1.5-5.6,4.6C194.8,202.2,194.2,208.3,194.2,217.5z"/>
		<path class="st3" d="M274.3,258.4h-32.4v-19.5h5v-42.4h-5v-19.5h35c6.9,0,12.2,0.6,16,1.7c3.7,1.2,6.6,3.5,8.7,7
			c2.1,3.5,3.2,7.7,3.2,12.4c0,4.6-1,8.3-3,11c-2.1,2.8-4.6,4.8-7.5,5.8c4,1.7,7.1,4.4,9.3,7.9c2.2,3.7,3.3,7.8,3.3,12.3
			c0,5.5-1.2,10.1-3.7,13.9c-2.5,3.8-5.9,6.3-10.2,7.4C288.7,257.8,282.5,258.4,274.3,258.4z M269,194.9v14.8h4.9
			c3.3,0,5.5-0.7,6.6-2c1-1.4,1.5-3.2,1.5-5.4c0-1.9-0.5-3.6-1.4-5.1c-0.9-1.5-3.4-2.3-7.5-2.3H269z M269,224.5v16h5
			c3.2,0,5.5-0.6,6.9-1.8c1.4-1.2,2.1-3.2,2.1-6.2c0-2.8-0.6-4.8-1.9-6.1c-1.2-1.3-3.6-1.9-7.2-1.9H269z"/>
		<path class="st3" d="M314.4,217.5c0-6.8,1.2-13.3,3.5-19.7c2.3-6.3,5.9-11.6,10.8-16c1.7-1.5,3.5-2.7,5.3-3.6
			c1.8-0.9,3.8-1.6,6-2.1c2.1-0.5,4.4-0.7,6.8-0.7c10.3,0,18.2,4.3,23.9,12.8c2.8,4.2,4.9,8.8,6.3,13.7c1.4,4.9,2.1,10.1,2.1,15.6
			c0,11.3-2.9,21.2-8.7,29.6c-5.8,8.4-13.7,12.6-23.6,12.6c-9.6,0-17.4-3.9-23.3-11.8C317.4,240,314.4,229.9,314.4,217.5z
			 M339.3,217.5c0,9,0.6,15.1,1.9,18.3c1.2,3.2,3,4.8,5.6,4.8c2.5,0,4.4-1.5,5.6-4.6c1.2-3.1,1.9-9.3,1.9-18.5
			c0-8.9-0.6-15-1.8-18.2c-1.2-3.2-3.1-4.8-5.6-4.8c-2.5,0-4.3,1.5-5.6,4.6C340,202.2,339.3,208.3,339.3,217.5z"/>
		<path class="st3" d="M427.3,258.4h-32.2v-19.5h4.9v-42.4h-6.6v14.8h-10.8v-34.2h56.8v34.2h-10.8v-14.8h-6.6v42.4h5.1V258.4z"/>
		<path class="st3" d="M478.5,258.4h-32.7v-19.5h5.3v-42.4h-5.3v-19.5h32.7v19.5h-5.2v42.4h5.2V258.4z"/>
		<path class="st3" d="M530.7,222.6l14.9,7.4c-1.3,8.7-4.2,15.8-8.7,21.3c-4.6,5.6-10.9,8.4-19,8.4c-11,0-19.1-4.1-24.4-12.2
			c-5.3-8.1-8-18-8-29.7c0-11.8,2.6-21.8,7.8-30c5.2-8.2,11.9-12.3,20.2-12.3c6.7,0,12.2,2.4,16.4,7.1v-5.4h13.8v29.7h-14.3
			c-0.7-3.7-2-6.6-3.8-8.8c-1.8-2.1-3.8-3.2-6-3.2c-6.2,0-9.3,7.6-9.3,22.7c0,15.2,3.2,22.8,9.6,22.8
			C525.7,240.4,529.3,234.4,530.7,222.6z"/>
		<path class="st3" d="M565.9,258.4H553v-26.1h12.9c1.5,7.1,4.4,10.6,8.7,10.6c3.1,0,4.6-1.8,4.6-5.3c0-1.8-0.5-3.4-1.6-4.6
			c-1.2-1.3-3.6-3.2-7.3-5.5c-4.7-3-8.1-5.6-10.3-7.8c-2.1-2-3.8-4.7-5.3-8.2c-1.5-3.5-2.2-7.3-2.2-11.5c0-7.6,1.7-13.5,5.2-17.7
			c3.4-4.2,7.7-6.4,12.7-6.4c5,0,9.3,2,12.8,6.1v-5h13v23.1h-12.8c-1.6-6.4-4.3-9.6-8.3-9.6c-2.8,0-4.2,1.7-4.2,5.1
			c0,1.6,0.4,2.9,1.2,3.7c0.8,0.9,3.3,2.7,7.5,5.7c5.6,4,9.4,6.9,11.3,8.7c1,0.9,1.9,2.2,2.9,3.8c1,1.6,1.8,3.3,2.5,5
			c1.5,3.8,2.3,7.9,2.3,12.4c0,6.8-1.8,12.6-5.4,17.3c-3.6,4.8-8.1,7.2-13.5,7.2c-5.1,0-9.6-2.1-13.7-6.4V258.4z"/>
	</g>
</g>
<g id="Helmet">
	<g>
		<path class="st4" d="M237.2,327.5c1.6-0.2,7-0.8,8.2-0.8c1.4,0,7.2-0.7,8.7-0.5c1.3,0.1,21.5-2.1,22-2.1c1.6,0.1,6.8-0.6,7.8-0.6
			c1.4,0,29.9-2.7,31.4-2.8c1.5-0.1,8.9-0.6,9.5-0.8c1.8-0.3,20.8-1.7,23.9-2.5c1.5-0.3,13.4-1.6,14.6-1.5
			c2.7,0.2,15.1-1.5,16.7-2.1c0.1,0,0.2-0.1,0.3-0.1c3.8-0.5,7.7-0.6,11.5-1.3c2.6-0.5,14.4-1.6,15.1-1.6c0.7-0.1,6.6-1.2,8.9-1.3
			c1.3-0.1,2.7-0.5,4-0.4c1.3,0,9.8-1.1,11.5-1.6c2.1-0.5,6.6-1.1,6.8-1.1c1,0,8.8-1.2,9.7-1.5c3.1-0.8,15.6-2.5,18.7-2.8
			c2.1-0.2,11.4-1.7,14.1-2c2-0.2,16.9-2.3,18.6-2.9c2.1-0.8,9.7-1.4,11.2-1.9c2.2-0.7,9.7-1.7,11.1-2.2c2-0.7,16.4-3.7,17.7-4
			c2.2-0.6,4.5-1.2,6.7-1.9c3.2-1,6.6-1.8,9.8-2.8c2.8-0.9,13-4.9,15.4-5.8c1.4-0.5,15.1-7.1,16.6-8.1c2.9-2,6-3.8,8.8-6.1
			c1.3-1.1,2.7-2.2,3.9-3.4c3.5-3.9,7.3-7.4,10.8-11.3c1.7-1.9,8.8-11.9,10.6-14.9c1.7-2.9,3.7-5.6,5.1-8.7c0.3-0.6,3.9-6.8,5-9.1
			c1-2.2,6.2-10.7,7.4-13c1.6-3,3.3-5.8,4.8-8.8c1.9-3.7,3.3-7.7,5.2-11.4c1.8-3.5,3.4-7,5-10.6c0.9-2,2.2-3.9,3.1-5.9
			c1.1-2.5,9.2-17.7,10.4-20.3c0.6-1.3,3.4-5.9,4.2-6.9c2.6-3.6,5.2-7.1,7.9-10.6c1.2-1.5,6.6-8.6,7.7-9.7c4.2-4,8.1-8.3,12.4-12.2
			c2.3-2.1,4.6-4.2,7.1-6.1c2.3-1.8,4.5-3.7,6.8-5.4c3-2.2,6-4.2,9.1-6.1c1.9-1.2,3.8-2.2,5.7-3.3c2.1-1.3,4.3-2.4,6.4-3.6
			c3.2-1.8,13.2-5.9,14.7-6.7c1.7-0.8,3.4-1.5,5.1-2.1c2.8-1,5.6-1.8,8.4-2.8c0,0,5.1-1.4,7.3-2.2c1.2-0.5,7.9-1.7,9.6-2
			c2-0.4,4.1-0.5,6.2-1c2.4-0.5,4.9-0.6,7.3-1.2c0.8-0.2,1.7-0.4,2.6-0.3c2.4,0.2,10.9-0.9,12-0.7c1.6,0.2,3.3,0.1,4.9,0.1
			c0.7,0,17.5,1.3,21.1,1.7c1.8,0.2,11.5,1.5,14.4,2.4c4.5,1.3,9,2.4,13.4,3.8c4.6,1.5,9.1,3.3,13.6,5.1c3.4,1.4,6.7,2.9,10,4.5
			c2.3,1.2-1-0.5,6.5,2.9c1.5,0.7,13.6,3.7,22.8,16.8c0,0,26.8,70.6,27.8,72.9c0.8,1.9,0.3,2.8-1.7,2.7
			c-2.7-0.1-110.9,0.1-114.8-0.1c-0.3,0-0.7,0.1-1,0.3c-0.5,0.4-0.7,0.9-0.6,1.7c0.2,1.1,1.1,1.2,1.8,1.3
			c1,0.1,125.9,28.4,127.2,28.5c1.5,0.2,2.8,0.7,3.6,2.4c1.1,2.5,12.4,31.6,13.4,32.9c0.5,0.7,0.5,1.5,0.2,2.3
			c-0.2,0.6-0.7,1.1-1,1.6c-1.6,2.6-50.1,76.9-52.3,80.4c-0.7,1.1-1.5,1.5-2.7,1.4c-3.4-0.1-668.7,0-678,0c0,0-1.6,0-1.6,0
			c-2.4,0-0.4-1.5-0.2-1.6C235.9,327.7,236.6,327.6,237.2,327.5z"/>
	</g>
	<g id="Layer_1">
		<path class="st5" d="M874.9,220.4l-0.2-0.1c-1-0.7-2.3-0.4-2.9,0.6l-22.6,35.4c-0.6,1-0.4,2.4,0.6,3l0.2,0.1
			c1,0.7,2.3,0.4,2.9-0.6l22.6-35.4C876.1,222.4,875.9,221.1,874.9,220.4z"/>
		<path class="st5" d="M853.1,213.9L853.1,213.9c-1-0.7-2.3-0.4-2.9,0.6l-16.8,26.4c-0.6,1-0.4,2.4,0.6,3l0,0c1,0.7,2.3,0.4,2.9-0.6
			l16.8-26.4C854.3,215.9,854,214.6,853.1,213.9z"/>
		<path class="st5" d="M831.3,207.6L831.3,207.6c-1-0.7-2.3-0.4-2.9,0.6l-9.8,15.4c-0.6,1-0.4,2.4,0.6,3l0,0c1,0.7,2.3,0.4,2.9-0.6
			l9.8-15.4C832.5,209.7,832.3,208.3,831.3,207.6z"/>
		<path class="st5" d="M897.6,226.7L897.6,226.7c-1-0.7-2.3-0.4-2.9,0.6l-29.9,46.8c-0.6,1-0.4,2.4,0.6,3l0,0c1,0.7,2.3,0.4,2.9-0.6
			l29.9-46.8C898.8,228.7,898.5,227.3,897.6,226.7z"/>
		<path class="st5" d="M920.3,233.6L920.3,233.6c-1-0.7-2.3-0.4-2.9,0.6l-36.7,57.5c-0.6,1-0.4,2.4,0.6,3l0,0c1,0.7,2.3,0.4,2.9-0.6
			l36.7-57.5C921.5,235.6,921.3,234.3,920.3,233.6z"/>
		<path class="st5" d="M942.3,240.3L942.3,240.3c-1-0.7-2.3-0.4-2.9,0.6L897,307.3c-0.6,1-0.4,2.4,0.6,3l0,0c1,0.7,2.3,0.4,2.9-0.6
			l42.4-66.4C943.5,242.4,943.3,241,942.3,240.3z"/>
	</g>
</g>
<g id="_x33_34_Techknights">
	<g>
		<path class="st3" d="M75.1,551.3L52.8,603h-37l22.3-51.7H0L7.5,534h112.1l-7.5,17.3H75.1z"/>
		<path class="st3" d="M159.2,595.1h-61l18.1-41.9h61l-4.5,10.4h-38.2l-2.4,5.6h27l-4.1,9.6h-27l-2.5,5.7h38.2L159.2,595.1z"/>
		<path class="st3" d="M195.2,582.2c-0.7,1.5,0.9,2.3,4.8,2.3h34.6l-4.6,10.6h-45c-12,0-16.8-2.6-14.6-7.8l11.4-26.4
			c2.3-5.2,9.4-7.9,21.4-7.9h45l-4.6,10.6h-35c-3.6,0-5.7,0.8-6.4,2.4L195.2,582.2z"/>
		<path class="st3" d="M309.8,595.1h-22.6l7-16.3h-26.7l-7,16.3h-22.7l18.1-42h22.7l-7,16.2h26.7l7-16.2H328L309.8,595.1z"/>
		<path class="st3" d="M398.4,562.4l50.7,40.6l-45.6-0.1l-36-31.3L354,603h-37.2l29.8-69h37.2l-9.3,21.5l49.1-21.5h43.9L398.4,562.4
			z"/>
		<path class="st3" d="M521.5,595.1h-14.2l-29.7-22.2l-9.6,22.2h-22.7l18.1-42h14.2l29.8,22.4l9.7-22.4h22.6L521.5,595.1z"/>
		<path class="st3" d="M552,595.1h-22.7l18.1-42h22.7L552,595.1z"/>
		<path class="st3" d="M604.8,569.3H643l-11.1,25.8h-54c-12,0-16.8-2.6-14.6-7.8l11.4-26.4c2.3-5.2,9.4-7.9,21.4-7.9h54.1l-4.6,10.6
			h-44.2c-3.6,0-5.7,0.8-6.4,2.4l-7,16.2c-0.7,1.5,0.9,2.3,4.8,2.3h21.1l2.5-5.7h-15.6L604.8,569.3z"/>
		<path class="st3" d="M711.8,595.1h-22.6l7-16.3h-26.7l-7,16.3h-22.7l18.1-42h22.7l-7,16.2h26.7l7-16.2H730L711.8,595.1z"/>
		<path class="st3" d="M777.7,563.6l-13.6,31.5h-22.5l13.6-31.5h-23.2l4.6-10.6h68.3l-4.6,10.6H777.7z"/>
		<path class="st3" d="M868.3,586.9c-2.4,5.5-9.9,8.2-22.5,8.2h-53l4.6-10.6h43.9c3.7,0,5.9-0.8,6.6-2.5l0.3-0.8
			c0.7-1.6-0.8-2.4-4.5-2.4h-25.6c-12.2,0-17.3-2.5-15.2-7.4l4.5-10.4c2.3-5.3,9.4-8,21.2-8H882l-4.6,10.6h-42.7
			c-3.8,0-6,0.8-6.6,2.3l-0.3,0.6c-0.8,1.8,0.7,2.7,4.3,2.7h26.4c11.6,0,16.4,2.5,14.2,7.4L868.3,586.9z"/>
	</g>
	<g>
		<path class="st3" d="M10.4,522.7l30.1-42.7h140.6c12.8,0,22-4,26.3-10.1l7.1-9.7c4.9-7,1.8-13.4-10.7-13.4H75l26.9-38.1h129.4
			c12.8,0,22-2.7,26.8-9.4l4.2-5.8c5.8-7.9,1.5-14-11.2-14H124.4l-23.6-38.1h206.2c49.2,0,52.6,19.8,39.7,38.1l-23.9,33.2
			c-7.8,10.7-27,21.3-46.2,22.2c15,4,25.9,13.1,15.5,28l-12,17.1c-30.1,42.7-58.7,42.7-77.2,42.7H10.4z"/>
		<path class="st3" d="M279.2,522.7l30.1-42.7h140.6c12.8,0,22-4,26.3-10.1l7.1-9.7c4.9-7,1.8-13.4-10.7-13.4H343.9l26.9-38.1h129.4
			c12.8,0,22-2.7,26.8-9.4l4.2-5.8c5.8-7.9,1.5-14-11.2-14H393.2l-23.6-38.1h206.2c49.2,0,52.6,19.8,39.7,38.1l-23.9,33.2
			c-7.8,10.7-27,21.3-46.2,22.2c15,4,25.9,13.1,15.5,28l-12,17.1c-30.1,42.7-58.7,42.7-77.2,42.7H279.2z"/>
		<path class="st3" d="M707.5,522.7l41.1-58.2H580l87.4-123.1h79.6l-60.5,85h88.7l60.8-85h79.6l-60.5,85h45l-27.5,38.1h-44.3
			l-41.1,58.2H707.5z"/>
	</g>
</g>
</svg>
